<?xml version="1.0" encoding="UTF-8"?>
<!-- Generator: Adobe Illustrator 27.8.1, SVG Export Plug-In . SVG Version: 6.00 Build 0)  -->
<svg xmlns="http://www.w3.org/2000/svg" xmlns:xlink="http://www.w3.org/1999/xlink" version="1.1" id="Layer_1" x="0px" y="0px" viewBox="0 0 59.51 59.86" style="enable-background:new 0 0 59.51 59.86;" xml:space="preserve">
<style type="text/css">
	.st0{fill:#584C3A;}
	.st1{fill:#7C7C78;}
	.st2{fill-rule:evenodd;clip-rule:evenodd;fill:#584C3A;}
</style>
<g>
	<g>
		<g>
			<path class="st0" d="M56.54,17.9c-0.16,0-0.2,0.23-0.29,0.37c-0.07,0.12-0.14,0.24-0.08,0.37c1.14,2.46,1.94,5.07,2.36,7.76     c0.22,1.47,0.33,2.95,0.34,4.43c-0.02,5.92-1.83,11.74-5.23,16.59c-3.67,5.23-6.88,8.04-13.62,10.49     c-5.72,2.08-12.08,2.22-17.91,0.47c-5.52-1.66-10.49-5.01-14.11-9.49C4.3,44.35,2.06,38.7,1.62,32.86     c-0.44-5.94,0.96-11.94,4.02-17.05C8.62,10.83,13.11,6.8,18.39,4.4C23.94,1.87,30.9,0.8,36.86,2.11     c0.88,0.19,2.77,0.71,5.73,1.73c0.05,0.02,1.46,0.61,1.51,0.64c0.04-0.13-0.46-0.26-0.58-0.38L43.38,4     c-2.07-0.65-2.1-0.72-3.29-1.14C34.34,0.85,27.94,1.11,22.1,2.8c-5.63,1.63-10.72,4.92-14.48,9.43     c-3.84,4.61-6.18,10.35-6.65,16.33C0.5,34.68,1.99,40.88,5.23,46.1c3.11,5.01,7.73,9.02,13.14,11.37     c5.57,2.41,11.84,3.02,17.78,1.77c6.94-1.46,10.87-3.89,15.2-8.38c4.15-4.3,6.91-9.83,7.82-15.73c0.23-1.48,0.34-2.97,0.34-4.46     C59.5,26.23,56.73,17.9,56.54,17.9z"></path>
		</g>
		<g>
			<path class="st1" d="M57.9,23.62c-0.38-1.87-1.12-3.46-1.69-5.45c-0.03-0.11-0.31,0.11-0.27,0.21c0.24,0.58,0.42,1.07,0.6,1.62     c1.81,5.5,1.9,11.5,0.3,17.06c-1.61,5.57-4.9,10.59-9.38,14.27c-1.14,0.94-2.36,1.79-3.63,2.55c-4.99,2.95-10.19,4.49-16.93,3.99     c-5.81-0.43-11.47-2.65-15.98-6.33c-4.72-3.85-8.09-9.25-9.56-15.15c-1.4-5.59-1.06-11.57,0.93-16.98     c2.02-5.5,5.72-10.31,10.52-13.68c4.88-3.42,10.75-5.29,16.71-5.27c5.11,0.02,10.18,1.41,14.58,4c0-0.09-0.04-0.27-0.11-0.33     c-0.92-0.79-6.65-3.21-10.38-3.8C27.68-0.58,21.55,0.34,16.17,3c-5.5,2.72-10.07,7.17-12.9,12.62     c-2.71,5.23-3.8,11.26-3.04,17.11c0.77,6.02,3.47,11.72,7.58,16.18c3.99,4.33,9.24,7.43,14.97,8.78     c5.81,1.37,11.98,0.91,17.52-1.33c1.7-0.69,2.94-1.36,4.01-1.99c5.26-3.15,9.44-7.89,11.84-13.53     C58.44,35.43,59.07,29.38,57.9,23.62z"></path>
		</g>
	</g>
	<g>
		<g>
			<path class="st1" d="M47.17,8.65c0.07,0.33,0.17,0.65,0.28,0.97c0.14,0.43,0.31,0.84,0.49,1.26c0.18,0.43,0.25,0.87,0.72,1.1     c0.21,0.1,0.45,0.14,0.63,0.28c0.06,0.05,0.12,0.11,0.19,0.14c0.37,0.18,0.44-1.18,0.44-1.42c0-0.61-0.15-1.21-0.42-1.75     c-0.38-0.76-0.95-1.48-1.52-2.1c-0.14-0.15-0.57-0.75-0.82-0.53c-0.1,0.08-0.12,0.22-0.13,0.35C46.99,7.52,47.05,8.09,47.17,8.65     z"></path>
		</g>
		<g>
			<path class="st1" d="M50.8,3.38c0.09-0.05,0.19-0.1,0.28-0.15c1.75-0.98,3.65-2.56,5.73-2.67c0.09,0,0.2,0,0.29,0.04     c0.14,0.07,0.13,0.18,0.1,0.25c-0.66,1.5-1.58,2.75-3.62,3.51c-1.1,0.41-6.91,1.75-6.5,1.15c0.42-0.62,1.13-1.01,1.81-1.25     C49.55,4.02,50.18,3.71,50.8,3.38z"></path>
		</g>
		<path class="st0" d="M53.92,8.74c1.61,0.33,3.12-0.29,3.35-1.37c0.22-1.07-0.73-2.14-2.17-2.42c-1.83-0.36-3.26,0.19-3.46,1.32    C51.44,7.4,52.39,8.43,53.92,8.74z"></path>
		<g>
			<path class="st1" d="M49.15,7.47c1.9,2.24,3.06,6.45,4.72,8.74c0.35,0.48,0.72,0.98,1.3,1.39c0.08,0.06,0.19,0.12,0.31,0.12     c0.18,0,0.23-0.13,0.24-0.24c0.21-2.19,0.03-4.23-1.53-6.37c-0.68-0.94-3.26-3.57-4.91-4.49c-0.38-0.21-0.71-0.34-0.96-0.33     C48.23,6.29,49.15,7.47,49.15,7.47z"></path>
		</g>
		<path class="st1" d="M49.7,8.18C48.2,6.6,46.1,5.42,45.23,5.2c-0.24-0.06-0.54-1.05-0.31-0.96c0.79,0.33,4.61,2.52,4.61,2.52    S49.94,8.44,49.7,8.18z"></path>
	</g>
	<g>
		<path class="st2" d="M17.75,20.94c0.57,0.57,1.13,1.1,1.63,1.67c1.1,1.26,1.76,2.76,2.15,4.37c0.04,0.16-0.01,0.42-0.12,0.52    c-0.52,0.47-0.7,1.07-0.49,1.68c0.31,0.9,0.64,1.82,1.14,2.62c1.33,2.12,2.87,4.1,4.75,5.78c0.47,0.41,1.01,0.77,1.56,1.07    c0.6,0.32,1.23,0.38,1.83-0.08c0.09-0.07,0.27-0.1,0.38-0.05c2.25,0.91,4.01,2.34,4.94,4.66c0.17,0.41,0.08,0.6-0.31,0.79    c-1.22,0.58-2.49,1-3.81,1.27c-0.34,0.07-0.62,0.01-0.92-0.18c-3.24-2.04-6.03-4.58-8.47-7.51c-2.88-3.46-5.21-7.24-6.72-11.51    c-0.22-0.59-0.19-1.08,0.09-1.63C15.99,23.19,16.74,22.04,17.75,20.94z M36.31,43.31c0.55-0.55,1.04-0.97,1.45-1.45    c0.38-0.45,0.45-1,0.21-1.57c-0.58-1.34-1.51-2.4-2.72-3.2c-1.3-0.84-3.03-0.5-4.08,0.81C33.61,38.96,35.35,40.66,36.31,43.31z     M23.69,22.52c-0.45-0.96-1.05-1.81-1.83-2.54c-0.43-0.41-0.91-0.77-1.56-0.66c-0.81,0.14-1.39,0.67-2,1.21    c2.11,1.6,3.4,3.66,3.95,6.24C24,25.78,24.5,24.26,23.69,22.52z"></path>
	</g>
	<g>
		<g>
			<path class="st0" d="M41.04,18.22h-9.78c-1.83,0-3.31,1.48-3.31,3.31v4.51c0,1.52,1.02,2.8,2.41,3.19l-0.68,3.67l3.05-3.54h8.3     c1.83,0,3.31-1.48,3.31-3.31v-4.51C44.35,19.7,42.87,18.22,41.04,18.22z M31.48,24.88c-0.7,0-1.27-0.57-1.27-1.27     c0-0.7,0.57-1.27,1.27-1.27c0.7,0,1.27,0.57,1.27,1.27C32.74,24.31,32.17,24.88,31.48,24.88z M36.15,24.88     c-0.7,0-1.27-0.57-1.27-1.27c0-0.7,0.57-1.27,1.27-1.27s1.27,0.57,1.27,1.27C37.42,24.31,36.85,24.88,36.15,24.88z M40.83,24.88     c-0.7,0-1.27-0.57-1.27-1.27c0-0.7,0.57-1.27,1.27-1.27s1.27,0.57,1.27,1.27C42.1,24.31,41.53,24.88,40.83,24.88z"></path>
		</g>
	</g>
</g>
</svg>
