<?xml version="1.0" encoding="UTF-8"?>
<!-- Generator: Adobe Illustrator 27.8.1, SVG Export Plug-In . SVG Version: 6.00 Build 0)  -->
<svg xmlns="http://www.w3.org/2000/svg" xmlns:xlink="http://www.w3.org/1999/xlink" version="1.1" id="Layer_1" x="0px" y="0px" viewBox="0 0 515 85.14" style="enable-background:new 0 0 515 85.14;" xml:space="preserve">
<style type="text/css">
	.st0{fill:#584C3A;}
	.st1{fill:#7C7C78;}
</style>
<g>
	<g>
		<g>
			<g>
				<path class="st0" d="M333.84,21.5c0-0.18-0.09-0.31-0.27-0.4c-0.36-0.22-0.9-0.27-1.61-0.13c-0.72,0.13-1.23,0.36-1.54,0.67      c-1.07,1.21-3.09,3.22-6.04,6.04c-3.49,3.27-5.37,4.76-5.64,4.49c4.47-6.89,7.42-12.08,8.86-15.56c0.36-0.85,0.34-1.5-0.07-1.95      c-0.81-1.03-1.92-1.48-3.35-1.34c-0.72,0.09-1.27,0.47-1.68,1.14c-0.63,1.16-1.48,2.19-2.55,3.09      c-9.97,8.32-18.58,14.09-25.83,17.31c-1.03,0.45-1.88,0.67-2.55,0.67c-1.39,0-2.1-1.07-2.15-3.22      c-0.04-3.26,2.44-7.8,7.45-13.62l4.16-4.7c3.98-4.47,6.96-7.29,8.96-8.45c1.99-1.16,3.66-1.74,5-1.74      c1.16,0,2.59,0.31,4.29,0.94c2.06,0.81,3.38,1.68,3.96,2.62c0.18,0.31,0.56,0.43,1.14,0.34c0.58-0.09,1.01-0.34,1.27-0.74      c0.4-0.54,0.4-1.18,0-1.95c-1.12-2.19-4.16-3.69-9.12-4.49c-2.33-0.36-4.57,0.03-6.74,1.17c-2.17,1.14-5.2,3.9-9.09,8.29      c-4.34,4.92-7.33,8.52-8.99,10.8c-3.71,5.1-5.57,9.28-5.57,12.54c0,1.61,0.46,2.95,1.38,4.03c0.92,1.07,2.2,1.61,3.86,1.61      c0.85,0,1.68-0.16,2.48-0.47c2.01-0.81,7.18-4.07,15.5-9.8c7.87-5.41,11.85-8.09,11.94-8.05c-3.35,6.84-7.51,13.64-12.48,20.39      c-5.37,7.38-10.67,13.24-15.9,17.58c-0.36,0.31-0.54,0.71-0.54,1.21c0,0.63,0.23,1.22,0.7,1.78c0.47,0.56,0.99,0.82,1.58,0.77      c1.07-0.09,1.68-0.4,1.81-0.94l0.07-0.27c0.09-0.27,0.2-0.49,0.34-0.67l14.89-17.64l17.85-16.3      C332.43,23.98,333.84,22.31,333.84,21.5z"></path>
				<path class="st0" d="M352.12,30.22c5.32-0.58,9.1-1.09,11.34-1.54c0.36-0.04,0.91-0.27,1.64-0.67c0.74-0.4,1.13-0.76,1.17-1.07      c-0.09-0.09-0.18-0.11-0.27-0.07c-4.79,0.45-9.06,0.69-12.81,0.74c6.26-7.56,12.93-14.09,19.99-19.59      c1.07-0.76,1.88-1.32,2.41-1.68c0.63-0.58,0.4-1.14-0.67-1.68c-0.54-0.27-1.1-0.4-1.68-0.4c-1.34,0-2.93,0.92-4.76,2.75      c-0.85,0.9-1.32,1.39-1.41,1.48c-5.68,4.96-11.94,11.43-18.78,19.39c-1.48,0-2.38,0.17-2.72,0.5c-0.34,0.34-0.5,0.7-0.5,1.11      c0.02,0.2,0.07,0.34,0.14,0.46c-2.13,1.28-4.26,2.56-6.39,3.84c-3.35,1.88-6.53,3.29-9.53,4.23c0.85-1.16,1.7-2.3,2.55-3.42      c1.52-2.06,2.86-3.67,4.03-4.83c0.67-0.54,1.18-0.94,1.54-1.21c0.98-0.71,1.14-1.61,0.47-2.68c-0.36-0.49-0.85-0.8-1.48-0.94      c-0.58-0.09-1.07,0.04-1.48,0.4c-0.85,0.98-1.54,1.84-2.08,2.55c-3.94,4.65-6.55,7.85-7.85,9.59c-1.25,1.52-1.39,2.73-0.4,3.62      c0.67,0.63,2.06,0.63,4.16,0c3.22-0.98,6.11-2.19,8.65-3.62c0.33-0.17,2.64-1.6,6.88-4.26c-9.84,11.29-14.78,18.82-14.78,22.58      c0,2.15,1.41,3.22,4.23,3.22c1.12,0,2.1-0.22,2.95-0.67c2.51-1.34,6.19-4.79,11.07-10.33c5.55-6.26,8.34-10.94,8.39-14.02      C356.19,32.15,354.85,30.89,352.12,30.22z M351.18,37.6c-3.53,6.13-8.63,11.81-15.3,17.04c-0.81,0.67-1.36,1.1-1.68,1.27      c-0.22,0-0.38-0.04-0.47-0.13c0.09-1.57,2.48-5.64,7.18-12.21c4.52-6.31,7.8-10.33,9.86-12.08c0.85,0.9,1.27,1.95,1.27,3.15      C352.06,35.59,351.77,36.57,351.18,37.6z"></path>
				<path class="st0" d="M379.38,19.42c1.74-1.52,3.17-2.75,4.29-3.69c1.38-1.21,2.08-2.03,2.08-2.48c0-0.94-0.92-1.41-2.75-1.41      c-0.8,0-1.66,0.47-2.55,1.41c-2.55,2.64-4.59,4.7-6.11,6.17h-8.92c-1.79,0.05-2.68,0.6-2.68,1.66c0,0.86,0.67,1.3,2.01,1.3      c0.71,0,1.83-0.07,3.35-0.2c1.52-0.13,2.73-0.2,3.62-0.2c-3.13,3.26-5.1,5.39-5.9,6.37c-3.98,3.98-6.6,6.82-7.85,8.52      c-0.58,0.76-0.92,1.3-1.01,1.61c-0.14,0.54,0.38,1.23,1.54,2.08c1.16,0.85,2.28,1.27,3.35,1.27c1.39,0,2.77-0.31,4.16-0.94      c6.53-3.67,11.34-6.48,14.42-8.45c1.13-0.81,2.11-1.53,2.98-2.18c-2.82,3.37-4.78,5.78-5.84,7.21c-1.25,1.52-1.39,2.73-0.4,3.62      c0.67,0.63,2.06,0.63,4.16,0c3.22-0.98,6.1-2.19,8.65-3.62c0.33-0.17,2.62-1.58,6.81-4.22c-1.61,2-3.69,4.37-6.26,7.11      c-0.09,0.09-0.13,0.2-0.13,0.34c0,0.36,0.31,0.74,0.94,1.14c0.63,0.4,1.34,0.6,2.15,0.6c0.63,0,1.25-0.16,1.88-0.47      c5.19-2.5,12.01-6.44,20.46-11.81c-2.06,3.09-3.18,5.43-3.35,7.04c-0.05,0.36,0.38,0.77,1.27,1.24      c0.89,0.47,1.79,0.71,2.68,0.71c0.4,0,0.76-0.07,1.07-0.2c3.96-1.83,7.08-3.35,9.39-4.56c-0.96,1.38-1.82,2.83-2.59,4.36      c-0.36,0.63-0.54,1.21-0.54,1.74c0,1.25,0.83,1.88,2.48,1.88c0.63,0,1.23-0.11,1.81-0.34c6.04-2.5,11.9-6.17,17.58-11      c-3.04,4.38-6.98,9.39-11.81,15.03c-1.97,2.37-4.07,4.76-6.31,7.18c-6.89,6.75-11.49,11.38-13.82,13.89      c-0.45,0.45-0.49,0.85-0.13,1.21l0.47,0.6c0.49,0.58,1.05,0.83,1.68,0.74c0.67-0.05,1.27-0.38,1.81-1.01      c3.94-4.88,10.44-11.56,19.52-20.06c3.94-3.58,10.69-7.81,20.26-12.68c2.28-1.21,3.42-2.15,3.42-2.82      c0-0.45-0.47-0.67-1.41-0.67c-0.76,0-1.43,0.16-2.01,0.47c-9.57,5.46-14.87,8.52-15.9,9.19c4.07-5.32,7.18-9.44,9.32-12.34      c0.63-0.85,0.94-1.45,0.94-1.81c0-0.27-0.13-0.49-0.4-0.67c-0.94-0.63-1.57-0.94-1.88-0.94c-0.9-0.09-1.59,0.07-2.08,0.47      l-1.01,0.87c-2.64-2.1-4.54-3.4-5.7-3.89c-0.9-0.36-1.9-0.2-3.02,0.47c-2.9,1.84-5.44,3.95-7.64,6.33      c-3.04,0.93-7.16,2.64-12.37,5.14c0.8-2.86,2.06-5.28,3.76-7.24c0.18-0.13,0.27-0.29,0.27-0.47c0-0.63-0.6-1.14-1.81-1.54      c-1.34-0.4-2.3-0.49-2.88-0.27c-0.81,0.45-1.39,0.78-1.74,1.01c-2.15,1.03-7.74,4.27-16.77,9.73c3.04-3.4,5.12-5.88,6.24-7.45      c0.36-0.45,0.66-0.8,0.91-1.07c0.25-0.27,0.35-0.45,0.3-0.54c-0.67-0.98-1.77-1.61-3.29-1.88c-0.72-0.09-1.57,0.8-2.55,2.68      c-0.16,0.29-0.34,0.6-0.55,0.92c-2.62,1.37-6.32,3.13-8.06,4.17c-3.35,1.88-6.53,3.29-9.53,4.23c0.85-1.16,1.7-2.3,2.55-3.42      c1.52-2.06,2.86-3.67,4.03-4.83c0.67-0.54,1.18-0.94,1.54-1.21c0.98-0.71,1.14-1.61,0.47-2.68c-0.36-0.49-0.85-0.8-1.48-0.94      c-0.58-0.09-0.82-0.11-1.44,0.1c-0.99,0.37-3.1,1.52-5.29,2.98c-2.76,1.84-4.99,3.58-7.04,4.7c-7.78,4.16-12.08,6.24-12.88,6.24      c-0.36,0-0.45-0.22-0.27-0.67c0.09-0.18,0.2-0.36,0.34-0.54c5.05-6.53,9.8-11.83,14.22-15.9c0.42-0.05,0.41-0.06,10.78-0.16      c1.79-0.02,2.06-2.28,0.85-2.28 M441.42,30.83c-4.47,2.82-7.85,4.85-10.13,6.1c-0.67,0.4-1.1,0.65-1.27,0.74      c-0.36,0.13-0.58,0.11-0.67-0.07c-0.04-0.18,0.04-0.42,0.27-0.74c1.57-2.42,4.25-5.21,8.05-8.39c0.8-0.67,1.45-1.01,1.95-1.01      c0.31,0,0.83,0.18,1.54,0.54c0.85,0.49,1.27,0.96,1.27,1.41C442.43,29.87,442.09,30.34,441.42,30.83z"></path>
			</g>
			<path class="st0" d="M391.81,20.46c1.15-1.4,2.88-1.93,3.83-1.16c0.94,0.77,0.86,2.35-0.18,3.59c-1.32,1.58-2.93,2.11-3.89,1.28     C390.62,23.34,390.72,21.79,391.81,20.46z"></path>
			<g>
				<path class="st0" d="M116.75,13.09c-0.14-3.55-1.66-6.5-4.57-8.87c-3.27-2.64-7.76-4.03-13.44-4.16      c-5.5-0.18-10.23,0.05-14.19,0.68c-3.37,0.55-7.71,1.64-13.03,3.27c-10.51,3.23-15.76,5.91-15.76,8.05      c0,0.46,0.39,1.05,1.16,1.77c0.64,0.5,1.48,0.96,2.52,1.37c0.55,0.23,1.46,0.5,2.73,0.82c0.5,0.14,0.8,0.07,0.89-0.2      c0.04-0.04,0.04-0.14,0-0.27c0-0.04-0.02-0.11-0.07-0.2c-2-1.05-3.09-1.68-3.27-1.91c-0.18-0.23-0.27-0.43-0.27-0.61      c0-0.59,1.23-1.36,3.68-2.32c7.6-2.91,12.98-4.82,16.17-5.73c5.77-1.64,11.44-2.46,16.99-2.46c1.18,0,2.39,0.05,3.62,0.14      c3.87,0.23,7.14,1.25,9.82,3.07c3.09,2.05,4.44,4.64,4.03,7.78c-0.32,2.59-3.16,5.16-8.53,7.71c-5.59,2.68-11.46,4.02-17.6,4.02      c-2.05,0-4.02-0.18-5.94-0.55l-2.29-0.45c4.92-6.03,8.77-10.43,11.5-13.13c0.45-0.45,0.57-1,0.34-1.64      c-0.27-0.68-0.71-1.02-1.3-1.02c-0.55,0-1.2,0.39-1.98,1.16c-3.09,3.18-7.47,8.25-13.13,15.21      c-5.66,6.96-9.45,11.92-11.36,14.87c-0.64,0.95-0.52,1.8,0.34,2.52c0.59,0.55,1.18,0.89,1.77,1.02      c0.45,0.14,0.93-0.05,1.43-0.55c2.5-3.27,4.27-5.82,5.32-7.64c0.27-0.45,0.09-0.89-0.55-1.3c2.74-3.5,5.22-6.6,7.49-9.39      l0.35,0.99c1.37,1.82,4.87,2.66,10.51,2.52c5-0.14,10.41-1.45,16.24-3.96C113.38,20.64,116.84,17.09,116.75,13.09z"></path>
				<path class="st0" d="M113.04,34.98c-3.72,1.54-7.22,2.62-10.49,3.21c-0.68,0.14-1.21,0.2-1.57,0.2      c-0.73-0.04-1.07-0.32-1.02-0.82c0.09-1.09,0.8-2.3,2.11-3.62c3,0.37,5.53,0.14,7.57-0.68c3.05-1.27,5.53-2.68,7.44-4.23      c1.05-0.82,1.57-1.71,1.57-2.66c0-0.82-1.09-1.48-3.27-1.98c-1.59-0.36-3.05-0.55-4.37-0.55c-0.77,0-1.32,0.02-1.64,0.07      c-1.87,0.27-4.25,1.68-7.16,4.23c-2.68,2.37-4.41,4.37-5.18,6c-0.64,1.27-0.96,2.32-0.96,3.14c0,1.55,1.02,2.66,3.07,3.34      c0.59,0.23,1.34,0.34,2.25,0.34c3.14,0,7.55-1.32,13.23-3.96c0.13-0.06,0.24-0.12,0.36-0.18c2.64-1.17,4.75-2.22,6.32-3.17      c2.41-1.46,4.46-2.75,6.14-3.89c0.91-0.64,3.09-1.16,6.55-1.57l0.75-0.07l-0.48,0.48c-3.91,4.14-6.28,6.87-7.09,8.19      c-0.18,0.36-0.27,0.68-0.27,0.96c0,1.55,1.64,2.32,4.91,2.32c0.73,0,1.32-0.07,1.77-0.2c2.14-0.68,4.57-1.75,7.3-3.21      c0.23-0.14,2.52-1.45,6.89-3.96c0.12-0.07,0.36-0.25,0.46-0.33c0.03-0.02,0.58-0.38,0.61-0.4c6.68-4.27,8.11-5.56,9.7-6.98      c-0.64,2-1.8,4.59-3.48,7.78c-3.09,1.77-6.1,3.89-9.01,6.34c-3.82,3.32-5.73,6.03-5.73,8.12c0,1.45,0.66,2.18,1.98,2.18      c1.86,0,4.77-2.07,8.73-6.21c3.32-3.46,5.64-6.3,6.96-8.53c2.77-1.32,4.71-2.14,5.8-2.46c0.1-0.03,0.17-0.06,0.27-0.09      c-0.77,1.25-1.37,2.62-1.77,4.11c-0.04,0.27-0.07,0.55-0.07,0.82c0,1.32,0.84,2.39,2.52,3.21c1.5,0.73,3,1,4.5,0.82      c5-0.59,9.28-2.18,12.82-4.78c2.91-2.05,4.37-3.96,4.37-5.73c0-2.23-1.96-3.87-5.87-4.91c-0.77-1-1.96-1.5-3.55-1.5      c-0.77,0-1.59,0.14-2.46,0.41c-3.49,1.14-6.11,2.61-8.19,4.68c-0.23,0.03-0.43,0.09-0.57,0.11c-0.81,0.15-2.81,0.62-6.18,1.89      c2.14-4.46,3.21-7.34,3.21-8.66c0-1.27-0.8-1.91-2.39-1.91c-0.64,0-1.3,0.36-1.98,1.09c-3.73,3.68-7.84,6.76-10.91,8.32      c-3.33,1.65-4.27,2.43-7.57,3.62c-2.91,1.23-5.16,2.16-6.75,2.8l-0.68,0.14l0.27-0.48c0.55-1.05,1.84-2.48,3.89-4.3      c1.5-1.32,3.02-2.64,4.57-3.96c0.27-0.27,0.41-0.57,0.41-0.89c0-0.64-0.49-1.2-1.47-1.71c-0.98-0.5-1.85-0.73-2.63-0.68      c-0.96,0.05-3.03,0.32-6.21,0.82c-3.5,0.55-5.42,0.97-5.76,1.26c-0.34,0.3-0.53,0.83-0.58,1.6c-5.52,3.23-9.15,5.23-10.88,6       M112.79,26.39c0.86,0.09,0.91,0.5,0.14,1.23c-0.91,0.82-2.27,1.71-4.09,2.66c-2.05,1.09-3.77,1.71-5.18,1.84      C107.78,28.12,110.83,26.21,112.79,26.39z M143.42,46.93c1.23-1.82,2.66-3.62,4.3-5.39c1.27-1.36,2.91-2.71,4.91-4.03      C150.17,40.33,147.1,43.47,143.42,46.93z M177.59,35.4c-4.37,2.55-8.01,3.82-10.92,3.82c-0.86,0-1.3-0.43-1.3-1.3      c0-1.77,1.67-3.97,5.01-6.58c3.34-2.61,6.38-3.92,9.11-3.92c0.55,0,1.07,0.07,1.57,0.2c1,0.32,1.5,1,1.5,2.05      c0,0.27-0.05,0.55-0.14,0.82C181.85,32.26,180.23,33.9,177.59,35.4z"></path>
				<path class="st0" d="M248.43,32.11c1.31-0.17,4.24-2.12,7.78-4.05c3.8-2.07,7.56-4.49,11.29-7.27      c6.32-4.73,11.32-9.62,15.01-14.67c0.91-1.27,0.95-2.46,0.14-3.55c-0.64-0.82-1.36-1.43-2.18-1.84      c-1.46-0.73-3.25-0.57-5.39,0.48c-6.28,3.05-13.71,9.19-22.31,18.42c-2.55,2.78-4.71,5.97-6.48,9.59      c-0.33,0.67-0.59,1.3-0.86,1.93c-2.78,1.39-5,2.12-7.6,3.15c-1,0.41-1.5,0.32-1.5-0.27c0-0.18,0.09-0.45,0.27-0.82      c0.91-1.68,2-3.23,3.27-4.64c0.96-1.09,0.77-1.95-0.54-2.59c-1.32-0.64-2.23-0.86-2.73-0.68c-0.46,0.14-1.02,0.61-1.71,1.43      c-1.23-0.77-2.27-1.41-3.14-1.91c-0.64-0.36-1.3-0.55-1.98-0.55c-0.77,0-1.82,0.27-3.14,0.82c-2,0.86-4.09,2.23-6.28,4.09      c-0.64,0.57-1.21,1.15-1.77,1.73c-2.91,1.01-6.61,2.59-11.13,4.75c0.82-2.91,2.09-5.37,3.82-7.37c0.18-0.14,0.27-0.29,0.27-0.48      c0-0.64-0.61-1.16-1.84-1.57c-1.37-0.41-2.34-0.5-2.93-0.27c-0.82,0.46-1.41,0.8-1.77,1.02c-2.18,1.05-7.87,4.34-17.05,9.89      c3.09-3.46,5.21-5.98,6.34-7.57c0.36-0.45,0.67-0.82,0.92-1.09c0.25-0.27,0.35-0.45,0.31-0.55c-0.68-1-1.8-1.64-3.34-1.91      c-0.73-0.09-1.59,0.82-2.59,2.73c-1.41,2.59-4.62,6.55-9.62,11.87c-0.09,0.09-0.14,0.2-0.14,0.34c0,0.36,0.32,0.75,0.95,1.16      c0.64,0.41,1.36,0.61,2.18,0.61c0.64,0,1.27-0.16,1.91-0.48c5.28-2.55,12.21-6.55,20.81-12.01c-2.09,3.14-3.23,5.53-3.41,7.16      c-0.05,0.36,0.39,0.78,1.3,1.26c0.91,0.48,1.82,0.72,2.73,0.72c0.41,0,0.77-0.07,1.09-0.2c3.28-1.52,6-2.82,8.16-3.92      c-0.51,0.93-0.96,1.87-1.27,2.83c-0.09,0.27-0.14,0.55-0.14,0.82c0,1.68,1.38,2.85,4.09,2.52c1.56-0.19,3.3-1.29,7.03-3.75      c3.15-2.08,5.62-3.84,7.44-5.25c-0.82,1.59-1.25,2.73-1.3,3.41c-0.05,0.55,0.44,1.14,1.47,1.77c1.02,0.64,2.03,0.89,3.04,0.75      c1.62-0.22,4.42-1.54,8.39-3.94c-0.45,1.56-0.68,2.99-0.68,4.28c0,2.5,0.91,4,2.73,4.5c0.64,0.14,1.34,0.2,2.12,0.2      c3.82,0,9.44-1.84,16.85-5.53c4.82-2.41,9.28-4.93,13.37-7.57c0.86-0.59,1.3-1.07,1.3-1.43c0-0.5-0.37-0.75-1.09-0.75      c-0.59,0-1.41,0.34-2.46,1.02c-0.68,0.46-1.36,0.91-2.05,1.36c-11.69,6.46-19.9,9.69-24.63,9.69c-1.87,0-2.8-0.82-2.8-2.46      c0-1.15,0.21-2.25,1.29-5.13C248.33,32.18,248.31,32.2,248.43,32.11z M230.19,30.56c-5.32,3.82-9.01,6.28-11.05,7.37      c-0.27,0.18-0.5,0.2-0.68,0.07c-0.23-0.14-0.23-0.36,0-0.68c1.05-1.77,2.3-3.32,3.75-4.64c0.5-0.41,2.18-1.68,5.05-3.82      c0.77-0.59,1.27-0.93,1.5-1.02c0.73-0.27,1.48-0.11,2.25,0.48C231.69,28.81,231.42,29.56,230.19,30.56z M256.18,20.73      c4.68-5.37,9.85-9.94,15.49-13.71c2.77-1.86,4.64-2.75,5.59-2.66c0.36,0.05,0.54,0.25,0.54,0.61c0,0.36-0.2,0.86-0.61,1.5      c-2.37,3.46-6.21,7.3-11.53,11.53c-5.09,4.05-10.03,7.28-14.8,9.69C252.5,25.28,254.27,22.96,256.18,20.73z"></path>
			</g>
			<g>
				<path class="st0" d="M12.94,20.06v1.63H7.47v18.07H5.5V21.7H0v-1.63H12.94z"></path>
				<path class="st0" d="M30.69,20.06v19.7h-1.97v-9.22H18.04v9.22h-1.97v-19.7h1.97v8.85h10.68v-8.85H30.69z"></path>
				<path class="st0" d="M37.17,21.67v7.36h7.47v1.63h-7.47v7.47h8.31v1.63H35.2V20.03h10.29v1.63H37.17z"></path>
			</g>
			<g>
				<path class="st0" d="M469.68,24.5c0.85-1.53,2-2.72,3.47-3.58c1.47-0.85,3.1-1.28,4.9-1.28c2.2,0,4.08,0.52,5.65,1.56      c1.57,1.04,2.71,2.51,3.42,4.41h-2.31c-0.56-1.33-1.42-2.38-2.58-3.13c-1.16-0.75-2.55-1.13-4.19-1.13      c-1.45,0-2.75,0.34-3.9,1.01s-2.06,1.65-2.72,2.92c-0.66,1.27-0.99,2.74-0.99,4.41s0.33,3.14,0.99,4.4      c0.66,1.26,1.56,2.23,2.72,2.9c1.16,0.68,2.46,1.01,3.9,1.01c1.63,0,3.03-0.37,4.19-1.11c1.16-0.74,2.02-1.77,2.58-3.09h2.31      c-0.71,1.88-1.86,3.34-3.44,4.37c-1.58,1.03-3.46,1.55-5.64,1.55c-1.8,0-3.44-0.43-4.9-1.28c-1.47-0.85-2.62-2.04-3.47-3.56      c-0.85-1.52-1.27-3.25-1.27-5.19S468.84,26.03,469.68,24.5z"></path>
				<path class="st0" d="M494.93,38.48c-1.48-0.85-2.65-2.05-3.51-3.58c-0.86-1.53-1.28-3.26-1.28-5.2s0.43-3.67,1.28-5.2      c0.85-1.53,2.02-2.72,3.51-3.58c1.48-0.85,3.14-1.28,4.96-1.28c1.84,0,3.5,0.43,4.99,1.28c1.48,0.86,2.65,2.05,3.49,3.58      c0.85,1.53,1.27,3.26,1.27,5.2s-0.42,3.67-1.27,5.2c-0.85,1.53-2.01,2.72-3.49,3.58c-1.48,0.86-3.15,1.28-4.99,1.28      C498.07,39.76,496.42,39.33,494.93,38.48z M503.84,37.03c1.16-0.68,2.09-1.65,2.76-2.92c0.68-1.27,1.01-2.74,1.01-4.41      s-0.34-3.14-1.01-4.4c-0.68-1.26-1.6-2.23-2.76-2.9c-1.17-0.68-2.48-1.01-3.95-1.01s-2.78,0.34-3.95,1.01      c-1.17,0.68-2.09,1.64-2.76,2.9c-0.68,1.26-1.01,2.72-1.01,4.4s0.34,3.14,1.01,4.41c0.68,1.27,1.6,2.24,2.76,2.92      c1.16,0.68,2.48,1.01,3.95,1.01S502.67,37.7,503.84,37.03z"></path>
				<path class="st0" d="M512.56,39.28c-0.27-0.28-0.41-0.63-0.41-1.04c0-0.41,0.14-0.76,0.41-1.03c0.27-0.27,0.62-0.41,1.03-0.41      c0.39,0,0.73,0.14,1,0.41c0.27,0.27,0.41,0.62,0.41,1.03c0,0.41-0.14,0.76-0.41,1.04c-0.27,0.28-0.61,0.42-1,0.42      C513.18,39.7,512.83,39.56,512.56,39.28z"></path>
			</g>
		</g>
		<g>
			<g>
				<path class="st1" d="M344.79,21.11c0.41,0,0.83-0.02,1.24-0.06c0.55-0.06,1.09-0.14,1.63-0.24c0.57-0.1,1.11-0.06,1.51-0.55      c0.18-0.22,0.29-0.5,0.51-0.68c0.07-0.06,0.16-0.11,0.22-0.19c0.31-0.4-1.29-0.84-1.58-0.91c-0.73-0.17-1.48-0.15-2.21,0.02      c-1.01,0.24-2.03,0.72-2.92,1.24c-0.21,0.13-1.05,0.48-0.86,0.83c0.07,0.14,0.23,0.2,0.38,0.25      C343.39,21.03,344.09,21.11,344.79,21.11z"></path>
			</g>
			<g>
				<path class="st1" d="M339.48,15.35c-0.04-0.13-0.07-0.25-0.11-0.38c-0.69-2.36-2.06-5.06-1.63-7.57      c0.02-0.11,0.05-0.24,0.13-0.34c0.12-0.15,0.25-0.11,0.33-0.05c1.62,1.2,2.85,2.63,3.2,5.28c0.19,1.43,0.21,8.73-0.41,8.08      c-0.63-0.67-0.89-1.62-1-2.51C339.9,17.01,339.71,16.17,339.48,15.35z"></path>
			</g>
			<path class="st0" d="M346.74,13.08c0.83-1.83,0.5-3.81-0.72-4.37c-1.22-0.56-2.75,0.29-3.48,1.93c-0.93,2.08-0.66,3.94,0.63,4.49     C344.46,15.67,345.95,14.82,346.74,13.08z"></path>
			<g>
				<path class="st1" d="M343.91,18.43c3.19-1.65,8.53-1.89,11.72-3.26c0.68-0.29,1.37-0.6,2.01-1.17c0.09-0.08,0.2-0.19,0.23-0.33      c0.05-0.21-0.09-0.31-0.22-0.36c-2.56-0.85-5.05-1.19-8.03,0.09c-1.31,0.56-5.15,2.92-6.7,4.63c-0.36,0.39-0.59,0.76-0.65,1.05      C342.25,19.21,343.91,18.43,343.91,18.43z"></path>
			</g>
			<path class="st1" d="M344.91,17.97c-2.29,1.35-4.24,3.66-4.74,4.64c-0.45,0.87-1.28,0-1.16-0.22c0.25-0.47,4.17-4.6,4.17-4.6     S345.29,17.75,344.91,17.97z"></path>
		</g>
	</g>
	<g>
		<g>
			<path class="st0" d="M117.45,84.84V70.32h8.74v2.43h-6.31v3.62h5.1v2.42h-5.1v6.05H117.45z"></path>
			<path class="st0" d="M136.17,85.14c-1.45,0-2.7-0.32-3.73-0.95c-1.03-0.64-1.83-1.52-2.38-2.66c-0.55-1.14-0.83-2.45-0.83-3.95     c0-1.5,0.28-2.82,0.83-3.95c0.55-1.14,1.35-2.02,2.38-2.66c1.04-0.64,2.28-0.95,3.73-0.95c1.45,0,2.7,0.32,3.74,0.95     c1.04,0.64,1.84,1.52,2.39,2.66c0.55,1.14,0.83,2.45,0.83,3.95c0,1.5-0.28,2.82-0.83,3.95c-0.55,1.14-1.35,2.02-2.39,2.66     C138.87,84.82,137.62,85.14,136.17,85.14z M136.17,82.85c0.97,0.01,1.79-0.21,2.43-0.65c0.65-0.44,1.14-1.05,1.46-1.85     c0.33-0.79,0.49-1.72,0.49-2.78c0-1.06-0.16-1.98-0.49-2.77c-0.33-0.78-0.81-1.39-1.46-1.83c-0.65-0.44-1.46-0.66-2.43-0.68     c-0.97-0.01-1.78,0.21-2.43,0.65c-0.65,0.44-1.13,1.05-1.46,1.84c-0.33,0.79-0.49,1.72-0.49,2.78c0,1.06,0.16,1.98,0.48,2.77     c0.32,0.78,0.81,1.39,1.46,1.83C134.38,82.61,135.19,82.84,136.17,82.85z"></path>
			<path class="st0" d="M147.16,84.84V70.32h6c0.14,0,0.32,0,0.54,0.02c0.22,0.01,0.43,0.03,0.62,0.07     c0.84,0.13,1.53,0.41,2.08,0.84c0.55,0.43,0.95,0.97,1.22,1.63s0.4,1.38,0.4,2.18c0,1.18-0.3,2.2-0.9,3.05     c-0.6,0.85-1.52,1.38-2.75,1.58l-1.04,0.09h-3.74v5.07H147.16z M149.59,77.5h3.47c0.13,0,0.29-0.01,0.45-0.02     c0.17-0.01,0.32-0.04,0.46-0.08c0.4-0.1,0.72-0.28,0.95-0.53c0.23-0.26,0.4-0.54,0.49-0.87c0.1-0.32,0.15-0.64,0.15-0.95     s-0.05-0.63-0.15-0.95c-0.1-0.33-0.26-0.62-0.49-0.87c-0.23-0.26-0.55-0.43-0.95-0.53c-0.14-0.04-0.3-0.07-0.46-0.08     c-0.17-0.01-0.32-0.02-0.45-0.02h-3.47V77.5z M155.5,84.84l-2.86-5.91l2.47-0.54l3.15,6.45H155.5z"></path>
			<path class="st0" d="M168.54,84.84V70.32h9.38v2.28h-6.95v3.58h5.74v2.28h-5.74v4.1h6.95v2.28H168.54z"></path>
			<path class="st0" d="M185.62,84.84l-4.58-14.52h2.5l3.83,12.16l3.88-12.16h2.5l-4.58,14.52H185.62z"></path>
			<path class="st0" d="M197.28,84.84V70.32h9.38v2.28h-6.95v3.58h5.74v2.28h-5.74v4.1h6.95v2.28H197.28z"></path>
			<path class="st0" d="M211.1,84.84V70.32h6c0.14,0,0.32,0,0.54,0.02c0.22,0.01,0.43,0.03,0.62,0.07c0.84,0.13,1.53,0.41,2.08,0.84     c0.55,0.43,0.95,0.97,1.22,1.63s0.4,1.38,0.4,2.18c0,1.18-0.3,2.2-0.9,3.05c-0.6,0.85-1.52,1.38-2.75,1.58l-1.04,0.09h-3.74v5.07     H211.1z M213.53,77.5H217c0.13,0,0.29-0.01,0.45-0.02c0.17-0.01,0.32-0.04,0.46-0.08c0.4-0.1,0.72-0.28,0.95-0.53     c0.23-0.26,0.4-0.54,0.49-0.87c0.1-0.32,0.15-0.64,0.15-0.95s-0.05-0.63-0.15-0.95c-0.1-0.33-0.26-0.62-0.49-0.87     c-0.23-0.26-0.55-0.43-0.95-0.53c-0.14-0.04-0.3-0.07-0.46-0.08c-0.17-0.01-0.32-0.02-0.45-0.02h-3.47V77.5z M219.44,84.84     l-2.86-5.91l2.47-0.54l3.15,6.45H219.44z"></path>
			<path class="st0" d="M229.75,84.84v-5.95l-4.94-8.57h2.83l3.34,5.79l3.33-5.79h2.83l-4.93,8.57v5.95H229.75z"></path>
			<path class="st0" d="M240.57,84.84V70.32h4.63c0.12,0,0.36,0,0.72,0.01c0.36,0.01,0.71,0.03,1.04,0.07     c1.15,0.15,2.12,0.56,2.92,1.22c0.8,0.67,1.4,1.52,1.81,2.56c0.41,1.03,0.62,2.17,0.62,3.4s-0.21,2.36-0.62,3.4     c-0.41,1.04-1.01,1.89-1.81,2.56c-0.8,0.67-1.77,1.08-2.92,1.23c-0.33,0.04-0.68,0.06-1.04,0.07c-0.36,0.01-0.61,0.01-0.73,0.01     H240.57z M243.04,82.55h2.16c0.2,0,0.46-0.01,0.77-0.02c0.31-0.01,0.59-0.04,0.83-0.09c0.69-0.13,1.24-0.43,1.67-0.92     c0.43-0.48,0.75-1.07,0.95-1.76s0.31-1.42,0.31-2.18c0-0.79-0.1-1.53-0.31-2.22c-0.21-0.69-0.53-1.27-0.96-1.74     c-0.43-0.47-0.99-0.77-1.66-0.9c-0.24-0.05-0.52-0.09-0.83-0.1c-0.31-0.01-0.57-0.02-0.77-0.02h-2.16V82.55z"></path>
			<path class="st0" d="M255.3,84.84l4.58-14.52h3.56l4.58,14.52h-2.5l-4.16-13.03h0.54l-4.1,13.03H255.3z M257.85,81.69v-2.27h7.62     v2.27H257.85z"></path>
			<path class="st0" d="M274.17,84.84v-5.95l-4.94-8.57h2.83l3.34,5.79l3.33-5.79h2.83l-4.93,8.57v5.95H274.17z"></path>
			<path class="st0" d="M296.22,85.14c-0.94,0-1.82-0.17-2.65-0.5c-0.82-0.33-1.55-0.82-2.17-1.47c-0.62-0.65-1.11-1.44-1.46-2.37     c-0.35-0.94-0.52-2.01-0.52-3.22c0-1.59,0.3-2.94,0.89-4.07c0.59-1.13,1.4-1.99,2.43-2.59c1.03-0.6,2.19-0.9,3.48-0.9     c1.79,0,3.21,0.41,4.25,1.25c1.05,0.83,1.75,1.99,2.12,3.49l-2.48,0.39c-0.28-0.86-0.73-1.55-1.35-2.06     c-0.62-0.51-1.42-0.77-2.39-0.77c-0.97-0.01-1.78,0.2-2.43,0.64c-0.65,0.44-1.13,1.05-1.46,1.84c-0.33,0.79-0.49,1.72-0.49,2.78     c0,1.06,0.16,1.98,0.48,2.77c0.32,0.78,0.81,1.39,1.46,1.83c0.65,0.44,1.46,0.66,2.43,0.68c0.73,0.01,1.37-0.13,1.93-0.4     c0.55-0.27,1-0.69,1.35-1.24c0.35-0.55,0.58-1.25,0.71-2.08h-2.56v-1.91h5.14c0.01,0.11,0.02,0.27,0.03,0.47     c0.01,0.21,0.01,0.33,0.01,0.37c0,1.37-0.27,2.59-0.81,3.66c-0.54,1.07-1.32,1.9-2.32,2.51     C298.83,84.84,297.62,85.14,296.22,85.14z"></path>
			<path class="st0" d="M307.21,84.84V70.32h2.43v14.52H307.21z"></path>
			<path class="st0" d="M317.95,84.84l-4.58-14.52h2.5l3.83,12.16l3.88-12.16h2.5l-4.58,14.52H317.95z"></path>
			<path class="st0" d="M329.82,84.84V70.32h2.43v14.52H329.82z"></path>
			<path class="st0" d="M337.29,84.84V70.32h2.46l6.74,10.23V70.32h2.46v14.52h-2.46l-6.74-10.23v10.23H337.29z"></path>
			<path class="st0" d="M359.77,85.14c-0.94,0-1.82-0.17-2.65-0.5c-0.82-0.33-1.55-0.82-2.17-1.47c-0.62-0.65-1.11-1.44-1.46-2.37     c-0.35-0.94-0.52-2.01-0.52-3.22c0-1.59,0.3-2.94,0.89-4.07c0.59-1.13,1.4-1.99,2.43-2.59c1.03-0.6,2.19-0.9,3.48-0.9     c1.79,0,3.21,0.41,4.25,1.25c1.05,0.83,1.75,1.99,2.12,3.49l-2.48,0.39c-0.28-0.86-0.73-1.55-1.35-2.06     c-0.62-0.51-1.42-0.77-2.39-0.77c-0.97-0.01-1.78,0.2-2.43,0.64c-0.65,0.44-1.13,1.05-1.46,1.84c-0.33,0.79-0.49,1.72-0.49,2.78     c0,1.06,0.16,1.98,0.48,2.77c0.32,0.78,0.81,1.39,1.46,1.83c0.65,0.44,1.46,0.66,2.43,0.68c0.73,0.01,1.37-0.13,1.93-0.4     c0.55-0.27,1-0.69,1.35-1.24c0.35-0.55,0.58-1.25,0.71-2.08h-2.56v-1.91h5.14c0.01,0.11,0.02,0.27,0.03,0.47     c0.01,0.21,0.01,0.33,0.01,0.37c0,1.37-0.27,2.59-0.81,3.66c-0.54,1.07-1.32,1.9-2.32,2.51     C362.38,84.84,361.18,85.14,359.77,85.14z"></path>
		</g>
	</g>
</g>
</svg>
